<svg xmlns="http://www.w3.org/2000/svg" xmlns:xlink="http://www.w3.org/1999/xlink" width="536" zoomAndPan="magnify" viewBox="0 0 402 179.999997" height="240" preserveAspectRatio="xMidYMid meet" version="1.0"><defs><g></g><clipPath id="49573c21a6"><path d="M 262 107 L 384 107 L 384 152 L 262 152 Z M 262 107 " clip-rule="nonzero"></path></clipPath><clipPath id="232c5f38c1"><path d="M 263.179688 96.863281 L 383.660156 104.886719 L 380.125 158.019531 L 259.640625 149.996094 Z M 263.179688 96.863281 " clip-rule="nonzero"></path></clipPath><clipPath id="f53d5ed5ea"><path d="M 265.070312 68.433594 L 385.554688 76.457031 L 380.121094 158.027344 L 259.640625 150.003906 Z M 265.070312 68.433594 " clip-rule="nonzero"></path></clipPath></defs><g fill="#152237" fill-opacity="1"><g transform="translate(32.454948, 115.012755)"><g><path d="M 54.671875 -41.75 C 59.140625 -36.851562 61.375 -30.867188 61.375 -23.796875 C 61.375 -16.734375 59.140625 -10.769531 54.671875 -5.90625 C 50.210938 -1.039062 44.539062 1.390625 37.65625 1.390625 C 31.332031 1.390625 26.125 -0.867188 22.03125 -5.390625 L 21.84375 -5.390625 L 21.84375 0 L 5.578125 0 L 5.578125 -79.96875 L 22.03125 -79.96875 L 22.03125 -43.140625 C 26.125 -47.109375 31.332031 -49.09375 37.65625 -49.09375 C 44.539062 -49.09375 50.210938 -46.644531 54.671875 -41.75 Z M 40.8125 -15.75 C 42.863281 -17.832031 43.890625 -20.515625 43.890625 -23.796875 C 43.890625 -27.085938 42.816406 -29.785156 40.671875 -31.890625 C 38.535156 -34.003906 35.890625 -35.0625 32.734375 -35.0625 C 29.628906 -35.0625 27.007812 -34.003906 24.875 -31.890625 C 22.738281 -29.785156 21.671875 -27.085938 21.671875 -23.796875 C 21.671875 -20.578125 22.707031 -17.910156 24.78125 -15.796875 C 26.851562 -13.691406 29.503906 -12.640625 32.734375 -12.640625 C 36.078125 -12.640625 38.769531 -13.675781 40.8125 -15.75 Z M 40.8125 -15.75 "></path></g></g></g><g fill="#152237" fill-opacity="1"><g transform="translate(91.40175, 115.012755)"><g><path d="M 5.578125 0 L 5.578125 -47.703125 L 22.03125 -47.703125 L 22.03125 -40.8125 L 22.21875 -40.8125 C 22.34375 -41.0625 22.546875 -41.375 22.828125 -41.75 C 23.109375 -42.125 23.710938 -42.773438 24.640625 -43.703125 C 25.566406 -44.628906 26.554688 -45.460938 27.609375 -46.203125 C 28.671875 -46.953125 30.035156 -47.617188 31.703125 -48.203125 C 33.378906 -48.796875 35.085938 -49.09375 36.828125 -49.09375 C 38.617188 -49.09375 40.378906 -48.84375 42.109375 -48.34375 C 43.847656 -47.851562 45.125 -47.359375 45.9375 -46.859375 L 47.234375 -46.125 L 40.359375 -32.171875 C 38.304688 -33.910156 35.453125 -34.78125 31.796875 -34.78125 C 29.816406 -34.78125 28.113281 -34.34375 26.6875 -33.46875 C 25.257812 -32.601562 24.25 -31.550781 23.65625 -30.3125 C 23.070312 -29.070312 22.65625 -28.015625 22.40625 -27.140625 C 22.15625 -26.273438 22.03125 -25.597656 22.03125 -25.109375 L 22.03125 0 Z M 5.578125 0 "></path></g></g></g><g fill="#152237" fill-opacity="1"><g transform="translate(133.147878, 115.012755)"><g><path d="M 7.15625 -74.28125 C 9.082031 -76.207031 11.375 -77.171875 14.03125 -77.171875 C 16.695312 -77.171875 18.988281 -76.207031 20.90625 -74.28125 C 22.832031 -72.363281 23.796875 -70.070312 23.796875 -67.40625 C 23.796875 -64.75 22.832031 -62.457031 20.90625 -60.53125 C 18.988281 -58.613281 16.695312 -57.65625 14.03125 -57.65625 C 11.375 -57.65625 9.082031 -58.613281 7.15625 -60.53125 C 5.238281 -62.457031 4.28125 -64.75 4.28125 -67.40625 C 4.28125 -70.070312 5.238281 -72.363281 7.15625 -74.28125 Z M 5.578125 -47.703125 L 5.578125 0 L 22.03125 0 L 22.03125 -47.703125 Z M 5.578125 -47.703125 "></path></g></g></g><g fill="#152237" fill-opacity="1"><g transform="translate(156.670589, 115.012755)"><g><path d="M 53.84375 -21.578125 L 19.25 -21.578125 C 19.25 -18.222656 20.332031 -15.738281 22.5 -14.125 C 24.664062 -12.519531 27.019531 -11.71875 29.5625 -11.71875 C 32.226562 -11.71875 34.335938 -12.070312 35.890625 -12.78125 C 37.441406 -13.5 39.207031 -14.910156 41.1875 -17.015625 L 53.09375 -11.0625 C 48.132812 -2.757812 39.890625 1.390625 28.359375 1.390625 C 21.171875 1.390625 15.003906 -1.070312 9.859375 -6 C 4.710938 -10.925781 2.140625 -16.859375 2.140625 -23.796875 C 2.140625 -30.742188 4.710938 -36.695312 9.859375 -41.65625 C 15.003906 -46.613281 21.171875 -49.09375 28.359375 -49.09375 C 35.921875 -49.09375 42.070312 -46.90625 46.8125 -42.53125 C 51.5625 -38.164062 53.9375 -31.921875 53.9375 -23.796875 C 53.9375 -22.679688 53.90625 -21.941406 53.84375 -21.578125 Z M 19.71875 -30.6875 L 37.84375 -30.6875 C 37.46875 -33.164062 36.488281 -35.070312 34.90625 -36.40625 C 33.332031 -37.738281 31.304688 -38.40625 28.828125 -38.40625 C 26.097656 -38.40625 23.925781 -37.691406 22.3125 -36.265625 C 20.707031 -34.835938 19.84375 -32.976562 19.71875 -30.6875 Z M 19.71875 -30.6875 "></path></g></g></g><g fill="#152237" fill-opacity="1"><g transform="translate(208.179265, 115.012755)"><g><path d="M 8.375 -47.703125 L 8.375 -57.84375 C 8.4375 -64.96875 10.109375 -70.664062 13.390625 -74.9375 C 16.671875 -79.21875 21.226562 -81.359375 27.0625 -81.359375 C 29.539062 -81.359375 31.910156 -81 34.171875 -80.28125 C 36.429688 -79.570312 38.054688 -78.847656 39.046875 -78.109375 L 40.640625 -77.078125 L 34.875 -65.46875 C 33.382812 -66.332031 31.738281 -66.765625 29.9375 -66.765625 C 27.894531 -66.765625 26.53125 -66.066406 25.84375 -64.671875 C 25.164062 -63.273438 24.828125 -60.84375 24.828125 -57.375 L 24.828125 -47.703125 L 35.796875 -47.703125 L 35.796875 -35.140625 L 24.828125 -35.140625 L 24.828125 0 L 8.375 0 L 8.375 -35.140625 L 1.484375 -35.140625 L 1.484375 -47.703125 Z M 8.375 -47.703125 "></path></g></g></g><g fill="#7a93ff" fill-opacity="1"><g transform="translate(238.493998, 115.012755)"><g><path d="M 5.578125 0 L 5.578125 -79.96875 L 22.03125 -79.96875 L 22.03125 0 Z M 5.578125 0 "></path></g></g></g><g fill="#7a93ff" fill-opacity="1"><g transform="translate(261.551825, 115.012755)"><g><path d="M 53.84375 -21.578125 L 19.25 -21.578125 C 19.25 -18.222656 20.332031 -15.738281 22.5 -14.125 C 24.664062 -12.519531 27.019531 -11.71875 29.5625 -11.71875 C 32.226562 -11.71875 34.335938 -12.070312 35.890625 -12.78125 C 37.441406 -13.5 39.207031 -14.910156 41.1875 -17.015625 L 53.09375 -11.0625 C 48.132812 -2.757812 39.890625 1.390625 28.359375 1.390625 C 21.171875 1.390625 15.003906 -1.070312 9.859375 -6 C 4.710938 -10.925781 2.140625 -16.859375 2.140625 -23.796875 C 2.140625 -30.742188 4.710938 -36.695312 9.859375 -41.65625 C 15.003906 -46.613281 21.171875 -49.09375 28.359375 -49.09375 C 35.921875 -49.09375 42.070312 -46.90625 46.8125 -42.53125 C 51.5625 -38.164062 53.9375 -31.921875 53.9375 -23.796875 C 53.9375 -22.679688 53.90625 -21.941406 53.84375 -21.578125 Z M 19.71875 -30.6875 L 37.84375 -30.6875 C 37.46875 -33.164062 36.488281 -35.070312 34.90625 -36.40625 C 33.332031 -37.738281 31.304688 -38.40625 28.828125 -38.40625 C 26.097656 -38.40625 23.925781 -37.691406 22.3125 -36.265625 C 20.707031 -34.835938 19.84375 -32.976562 19.71875 -30.6875 Z M 19.71875 -30.6875 "></path></g></g></g><g fill="#7a93ff" fill-opacity="1"><g transform="translate(313.060489, 115.012755)"><g><path d="M 53.84375 -21.578125 L 19.25 -21.578125 C 19.25 -18.222656 20.332031 -15.738281 22.5 -14.125 C 24.664062 -12.519531 27.019531 -11.71875 29.5625 -11.71875 C 32.226562 -11.71875 34.335938 -12.070312 35.890625 -12.78125 C 37.441406 -13.5 39.207031 -14.910156 41.1875 -17.015625 L 53.09375 -11.0625 C 48.132812 -2.757812 39.890625 1.390625 28.359375 1.390625 C 21.171875 1.390625 15.003906 -1.070312 9.859375 -6 C 4.710938 -10.925781 2.140625 -16.859375 2.140625 -23.796875 C 2.140625 -30.742188 4.710938 -36.695312 9.859375 -41.65625 C 15.003906 -46.613281 21.171875 -49.09375 28.359375 -49.09375 C 35.921875 -49.09375 42.070312 -46.90625 46.8125 -42.53125 C 51.5625 -38.164062 53.9375 -31.921875 53.9375 -23.796875 C 53.9375 -22.679688 53.90625 -21.941406 53.84375 -21.578125 Z M 19.71875 -30.6875 L 37.84375 -30.6875 C 37.46875 -33.164062 36.488281 -35.070312 34.90625 -36.40625 C 33.332031 -37.738281 31.304688 -38.40625 28.828125 -38.40625 C 26.097656 -38.40625 23.925781 -37.691406 22.3125 -36.265625 C 20.707031 -34.835938 19.84375 -32.976562 19.71875 -30.6875 Z M 19.71875 -30.6875 "></path></g></g></g><g clip-path="url(#49573c21a6)"><g clip-path="url(#232c5f38c1)"><g clip-path="url(#f53d5ed5ea)"><path fill="#7a93ff" d="M 262.828125 117.105469 C 266.0625 126.300781 273.386719 133.15625 281.421875 138.308594 C 290.359375 144.035156 300.347656 148.121094 310.71875 150.351562 C 330.824219 154.636719 352.59375 150.660156 368.140625 136.730469 C 375.824219 129.847656 382.128906 120.5625 383.292969 110.121094 C 383.597656 107.492188 379.90625 106.390625 378.800781 108.882812 C 375.484375 116.316406 371.179688 123.210938 365.203125 128.839844 C 359.277344 134.386719 352.292969 138.453125 344.558594 140.976562 C 326.203125 146.976562 305.167969 143.140625 288.351562 134.410156 C 279.554688 129.765625 272.085938 123.152344 265.980469 115.308594 C 264.640625 113.636719 262.144531 115.179688 262.828125 117.105469 Z M 262.828125 117.105469 " fill-opacity="1" fill-rule="nonzero"></path></g></g></g></svg>