<svg xmlns="http://www.w3.org/2000/svg" xmlns:xlink="http://www.w3.org/1999/xlink" width="500" zoomAndPan="magnify" viewBox="0 0 375 374.999991" height="500" preserveAspectRatio="xMidYMid meet" version="1.0"><defs><g></g><clipPath id="21f46498ae"><path d="M 46 186 L 335 186 L 335 293 L 46 293 Z M 46 186 " clip-rule="nonzero"></path></clipPath><clipPath id="2ef703409e"><path d="M 47.796875 161.34375 L 335.910156 180.527344 L 327.488281 306.996094 L 39.378906 287.8125 Z M 47.796875 161.34375 " clip-rule="nonzero"></path></clipPath><clipPath id="4745145ea4"><path d="M 52.308594 93.597656 L 340.421875 112.78125 L 327.515625 306.601562 L 39.402344 287.417969 Z M 52.308594 93.597656 " clip-rule="nonzero"></path></clipPath></defs><g fill="#7a93ff" fill-opacity="1"><g transform="translate(68.586704, 213.83258)"><g><path d="M 10.15625 0 L 10.15625 -145.5625 L 40.109375 -145.5625 L 40.109375 0 Z M 10.15625 0 "></path></g></g></g><g fill="#7a93ff" fill-opacity="1"><g transform="translate(110.556798, 213.83258)"><g><path d="M 98 -39.265625 L 35.03125 -39.265625 C 35.03125 -33.171875 37.003906 -28.65625 40.953125 -25.71875 C 44.898438 -22.789062 49.191406 -21.328125 53.828125 -21.328125 C 58.671875 -21.328125 62.503906 -21.972656 65.328125 -23.265625 C 68.148438 -24.566406 71.367188 -27.132812 74.984375 -30.96875 L 96.640625 -20.140625 C 87.617188 -5.023438 72.613281 2.53125 51.625 2.53125 C 38.53125 2.53125 27.300781 -1.953125 17.9375 -10.921875 C 8.570312 -19.890625 3.890625 -30.691406 3.890625 -43.328125 C 3.890625 -55.960938 8.570312 -66.789062 17.9375 -75.8125 C 27.300781 -84.84375 38.53125 -89.359375 51.625 -89.359375 C 65.382812 -89.359375 76.582031 -85.378906 85.21875 -77.421875 C 93.851562 -69.472656 98.171875 -58.109375 98.171875 -43.328125 C 98.171875 -41.296875 98.113281 -39.941406 98 -39.265625 Z M 35.875 -55.859375 L 68.890625 -55.859375 C 68.210938 -60.367188 66.429688 -63.835938 63.546875 -66.265625 C 60.671875 -68.691406 56.976562 -69.90625 52.46875 -69.90625 C 47.5 -69.90625 43.546875 -68.601562 40.609375 -66 C 37.679688 -63.40625 36.101562 -60.023438 35.875 -55.859375 Z M 35.875 -55.859375 "></path></g></g></g><g fill="#7a93ff" fill-opacity="1"><g transform="translate(204.315115, 213.83258)"><g><path d="M 98 -39.265625 L 35.03125 -39.265625 C 35.03125 -33.171875 37.003906 -28.65625 40.953125 -25.71875 C 44.898438 -22.789062 49.191406 -21.328125 53.828125 -21.328125 C 58.671875 -21.328125 62.503906 -21.972656 65.328125 -23.265625 C 68.148438 -24.566406 71.367188 -27.132812 74.984375 -30.96875 L 96.640625 -20.140625 C 87.617188 -5.023438 72.613281 2.53125 51.625 2.53125 C 38.53125 2.53125 27.300781 -1.953125 17.9375 -10.921875 C 8.570312 -19.890625 3.890625 -30.691406 3.890625 -43.328125 C 3.890625 -55.960938 8.570312 -66.789062 17.9375 -75.8125 C 27.300781 -84.84375 38.53125 -89.359375 51.625 -89.359375 C 65.382812 -89.359375 76.582031 -85.378906 85.21875 -77.421875 C 93.851562 -69.472656 98.171875 -58.109375 98.171875 -43.328125 C 98.171875 -41.296875 98.113281 -39.941406 98 -39.265625 Z M 35.875 -55.859375 L 68.890625 -55.859375 C 68.210938 -60.367188 66.429688 -63.835938 63.546875 -66.265625 C 60.671875 -68.691406 56.976562 -69.90625 52.46875 -69.90625 C 47.5 -69.90625 43.546875 -68.601562 40.609375 -66 C 37.679688 -63.40625 36.101562 -60.023438 35.875 -55.859375 Z M 35.875 -55.859375 "></path></g></g></g><g clip-path="url(#21f46498ae)"><g clip-path="url(#2ef703409e)"><g clip-path="url(#4745145ea4)"><path fill="#7a93ff" d="M 46.960938 209.589844 C 54.671875 231.496094 72.125 247.839844 91.277344 260.117188 C 112.578125 273.761719 136.378906 283.496094 161.089844 288.808594 C 209.003906 299.027344 260.882812 289.542969 297.933594 256.355469 C 316.242188 239.949219 331.265625 217.820312 334.042969 192.945312 C 334.765625 186.675781 325.976562 184.050781 323.339844 189.988281 C 315.4375 207.699219 305.171875 224.132812 290.933594 237.550781 C 276.808594 250.769531 260.167969 260.460938 241.738281 266.46875 C 197.996094 280.773438 147.867188 271.628906 107.789062 250.824219 C 86.824219 239.75 69.027344 223.996094 54.480469 205.300781 C 51.28125 201.320312 45.332031 204.996094 46.960938 209.589844 Z M 46.960938 209.589844 " fill-opacity="1" fill-rule="nonzero"></path></g></g></g></svg>